<svg xmlns="http://www.w3.org/2000/svg" xmlns:xlink="http://www.w3.org/1999/xlink" width="500" zoomAndPan="magnify" viewBox="0 0 375 374.999991" height="500" preserveAspectRatio="xMidYMid meet" version="1.0"><defs><g/><clipPath id="f3dda615b2"><path d="M 82.386719 96.398438 L 261 96.398438 L 261 157 L 82.386719 157 Z M 82.386719 96.398438 " clip-rule="nonzero"/></clipPath><clipPath id="96d2d30b3c"><path d="M 189 97 L 292.386719 97 L 292.386719 156 L 189 156 Z M 189 97 " clip-rule="nonzero"/></clipPath></defs><rect x="-37.5" width="450" fill="#ffffff" y="-37.499999" height="449.999989" fill-opacity="1"/><rect x="-37.5" width="450" fill="#ffffff" y="-37.499999" height="449.999989" fill-opacity="1"/><g fill="#002498" fill-opacity="1"><g transform="translate(25.673947, 214.777853)"><g><path d="M 20.484375 -7.453125 L 20.484375 -14.5 L 29.84375 -14.5 L 29.84375 -8.578125 C 29.84375 -2.390625 26.929688 0.703125 21.109375 0.703125 L 12.25 0.703125 C 6.425781 0.703125 3.515625 -2.390625 3.515625 -8.578125 L 3.515625 -36.953125 C 3.515625 -43.140625 6.425781 -46.234375 12.25 -46.234375 L 21.109375 -46.234375 C 26.929688 -46.234375 29.84375 -43.140625 29.84375 -36.953125 L 29.84375 -32.65625 L 20.484375 -32.65625 L 20.484375 -38.140625 C 20.484375 -38.515625 20.351562 -38.84375 20.09375 -39.125 C 19.832031 -39.40625 19.515625 -39.546875 19.140625 -39.546875 L 14.703125 -39.546875 C 14.328125 -39.546875 14.007812 -39.40625 13.75 -39.125 C 13.5 -38.84375 13.375 -38.515625 13.375 -38.140625 L 13.375 -7.453125 C 13.375 -7.078125 13.5 -6.75 13.75 -6.46875 C 14.007812 -6.1875 14.328125 -6.046875 14.703125 -6.046875 L 19.140625 -6.046875 C 19.515625 -6.046875 19.832031 -6.1875 20.09375 -6.46875 C 20.351562 -6.75 20.484375 -7.078125 20.484375 -7.453125 Z M 20.484375 -7.453125 "/></g></g></g><g fill="#002498" fill-opacity="1"><g transform="translate(57.903929, 214.777853)"><g><path d="M 30.328125 -36.953125 L 30.328125 -8.578125 C 30.328125 -2.390625 27.421875 0.703125 21.609375 0.703125 L 12.25 0.703125 C 6.425781 0.703125 3.515625 -2.390625 3.515625 -8.578125 L 3.515625 -36.953125 C 3.515625 -43.140625 6.425781 -46.234375 12.25 -46.234375 L 21.609375 -46.234375 C 27.421875 -46.234375 30.328125 -43.140625 30.328125 -36.953125 Z M 20.484375 -7.453125 L 20.484375 -38.140625 C 20.484375 -38.515625 20.351562 -38.84375 20.09375 -39.125 C 19.832031 -39.40625 19.515625 -39.546875 19.140625 -39.546875 L 14.703125 -39.546875 C 14.328125 -39.546875 14.007812 -39.40625 13.75 -39.125 C 13.5 -38.84375 13.375 -38.515625 13.375 -38.140625 L 13.375 -7.453125 C 13.375 -7.078125 13.5 -6.75 13.75 -6.46875 C 14.007812 -6.1875 14.328125 -6.046875 14.703125 -6.046875 L 19.140625 -6.046875 C 19.515625 -6.046875 19.832031 -6.1875 20.09375 -6.46875 C 20.351562 -6.75 20.484375 -7.078125 20.484375 -7.453125 Z M 20.484375 -7.453125 "/></g></g></g><g fill="#002498" fill-opacity="1"><g transform="translate(91.96357, 214.777853)"><g><path d="M 29.625 0 L 19.78125 0 L 19.78125 -37.796875 C 19.78125 -38.171875 19.648438 -38.5 19.390625 -38.78125 C 19.128906 -39.0625 18.8125 -39.203125 18.4375 -39.203125 L 14.640625 -39.203125 C 14.265625 -39.203125 13.945312 -39.0625 13.6875 -38.78125 C 13.425781 -38.5 13.296875 -38.171875 13.296875 -37.796875 L 13.296875 0 L 3.453125 0 L 3.453125 -36.953125 C 3.453125 -43.140625 6.359375 -46.234375 12.171875 -46.234375 L 20.90625 -46.234375 C 26.71875 -46.234375 29.625 -43.140625 29.625 -36.953125 Z M 29.625 0 "/></g></g></g><g fill="#002498" fill-opacity="1"><g transform="translate(124.686152, 214.777853)"><g><path d="M 28.78125 -33.5625 L 19.421875 -33.5625 L 19.421875 -37.15625 C 19.421875 -37.53125 19.289062 -37.859375 19.03125 -38.140625 C 18.78125 -38.421875 18.46875 -38.5625 18.09375 -38.5625 L 14.21875 -38.5625 C 13.84375 -38.5625 13.523438 -38.421875 13.265625 -38.140625 C 13.003906 -37.859375 12.875 -37.53125 12.875 -37.15625 L 12.875 -29.0625 C 12.875 -28.6875 13.003906 -28.359375 13.265625 -28.078125 C 13.523438 -27.796875 13.84375 -27.65625 14.21875 -27.65625 L 20.546875 -27.65625 C 26.367188 -27.5625 29.28125 -24.46875 29.28125 -18.375 L 29.28125 -8.578125 C 29.28125 -2.390625 26.367188 0.703125 20.546875 0.703125 L 12.25 0.703125 C 6.425781 0.703125 3.515625 -2.390625 3.515625 -8.578125 L 3.515625 -13.296875 L 12.875 -13.296875 L 12.875 -8.234375 C 12.875 -7.859375 13.003906 -7.53125 13.265625 -7.25 C 13.523438 -6.96875 13.84375 -6.828125 14.21875 -6.828125 L 18.578125 -6.828125 C 18.953125 -6.828125 19.269531 -6.96875 19.53125 -7.25 C 19.789062 -7.53125 19.921875 -7.859375 19.921875 -8.234375 L 19.921875 -17.171875 C 19.921875 -17.546875 19.789062 -17.875 19.53125 -18.15625 C 19.269531 -18.4375 18.953125 -18.578125 18.578125 -18.578125 L 12.25 -18.578125 C 6.425781 -18.578125 3.515625 -21.675781 3.515625 -27.875 L 3.515625 -36.953125 C 3.515625 -43.140625 6.425781 -46.234375 12.25 -46.234375 L 20.0625 -46.234375 C 25.875 -46.234375 28.78125 -43.140625 28.78125 -36.953125 Z M 28.78125 -33.5625 "/></g></g></g><g fill="#002498" fill-opacity="1"><g transform="translate(156.916134, 214.777853)"><g><path d="M 0.921875 -37.15625 L 0.921875 -45.53125 L 25.546875 -45.53125 L 25.546875 -37.15625 L 18.15625 -37.15625 L 18.15625 0 L 8.296875 0 L 8.296875 -37.15625 Z M 0.921875 -37.15625 "/></g></g></g><g fill="#002498" fill-opacity="1"><g transform="translate(183.446054, 214.777853)"><g><path d="M 13.375 -18.65625 L 13.375 0 L 3.515625 0 L 3.515625 -45.53125 L 21.046875 -45.53125 C 26.859375 -45.53125 29.765625 -42.4375 29.765625 -36.25 L 29.765625 -30.96875 C 29.765625 -27.207031 28.425781 -24.8125 25.75 -23.78125 C 28.101562 -22.9375 29.28125 -21.015625 29.28125 -18.015625 L 29.28125 0 L 19.421875 0 L 19.421875 -17.234375 C 19.421875 -18.179688 18.976562 -18.65625 18.09375 -18.65625 Z M 13.375 -38.84375 L 13.375 -25.546875 L 18.578125 -25.546875 C 18.953125 -25.546875 19.269531 -25.6875 19.53125 -25.96875 C 19.789062 -26.25 19.921875 -26.578125 19.921875 -26.953125 L 19.921875 -37.4375 C 19.921875 -37.8125 19.789062 -38.140625 19.53125 -38.421875 C 19.269531 -38.703125 18.953125 -38.84375 18.578125 -38.84375 Z M 13.375 -38.84375 "/></g></g></g><g fill="#002498" fill-opacity="1"><g transform="translate(216.027896, 214.777853)"><g><path d="M 19.78125 -45.53125 L 29.625 -45.53125 L 29.625 -8.578125 C 29.625 -2.390625 26.71875 0.703125 20.90625 0.703125 L 12.171875 0.703125 C 6.359375 0.703125 3.453125 -2.390625 3.453125 -8.578125 L 3.453125 -45.53125 L 13.296875 -45.53125 L 13.296875 -7.734375 C 13.296875 -7.359375 13.425781 -7.03125 13.6875 -6.75 C 13.945312 -6.46875 14.265625 -6.328125 14.640625 -6.328125 L 18.4375 -6.328125 C 18.8125 -6.328125 19.128906 -6.46875 19.390625 -6.75 C 19.648438 -7.03125 19.78125 -7.359375 19.78125 -7.734375 Z M 19.78125 -45.53125 "/></g></g></g><g fill="#002498" fill-opacity="1"><g transform="translate(248.891217, 214.777853)"><g><path d="M 7.171875 7.453125 L 13.65625 0.703125 L 12.25 0.703125 C 6.425781 0.703125 3.515625 -2.390625 3.515625 -8.578125 L 3.515625 -36.953125 C 3.515625 -43.140625 6.425781 -46.234375 12.25 -46.234375 L 21.109375 -46.234375 C 26.929688 -46.234375 29.84375 -43.140625 29.84375 -36.953125 L 29.84375 -32.65625 L 20.484375 -32.65625 L 20.484375 -38.140625 C 20.484375 -38.515625 20.351562 -38.84375 20.09375 -39.125 C 19.832031 -39.40625 19.515625 -39.546875 19.140625 -39.546875 L 14.703125 -39.546875 C 14.328125 -39.546875 14.007812 -39.40625 13.75 -39.125 C 13.5 -38.84375 13.375 -38.515625 13.375 -38.140625 L 13.375 -7.453125 C 13.375 -7.078125 13.5 -6.75 13.75 -6.46875 C 14.007812 -6.1875 14.328125 -6.046875 14.703125 -6.046875 L 19.140625 -6.046875 C 19.515625 -6.046875 19.832031 -6.1875 20.09375 -6.46875 C 20.351562 -6.75 20.484375 -7.078125 20.484375 -7.453125 L 20.484375 -14.5 L 29.84375 -14.5 L 29.84375 -8.578125 C 29.84375 -2.390625 26.929688 0.703125 21.109375 0.703125 L 20.828125 0.703125 L 17.515625 7.453125 Z M 7.171875 7.453125 "/></g></g></g><g fill="#002498" fill-opacity="1"><g transform="translate(281.121211, 214.777853)"><g><path d="M 21.609375 -46.234375 C 27.421875 -46.234375 30.328125 -43.140625 30.328125 -36.953125 L 30.328125 0 L 20.484375 0 L 20.484375 -15.265625 L 13.375 -15.265625 L 13.375 0 L 3.515625 0 L 3.515625 -36.953125 C 3.515625 -43.140625 6.425781 -46.234375 12.25 -46.234375 Z M 13.375 -22.875 L 20.484375 -22.875 L 20.484375 -38.140625 C 20.484375 -38.515625 20.351562 -38.84375 20.09375 -39.125 C 19.832031 -39.40625 19.515625 -39.546875 19.140625 -39.546875 L 14.703125 -39.546875 C 14.328125 -39.546875 14.007812 -39.40625 13.75 -39.125 C 13.5 -38.84375 13.375 -38.515625 13.375 -38.140625 Z M 20.546875 -48.421875 C 19.285156 -48.554688 17.796875 -48.953125 16.078125 -49.609375 C 14.367188 -50.265625 13.066406 -50.640625 12.171875 -50.734375 C 10.253906 -50.734375 8.707031 -50.007812 7.53125 -48.5625 L 5.625 -48.703125 L 5.703125 -49.328125 C 5.890625 -51.628906 6.660156 -53.363281 8.015625 -54.53125 C 9.378906 -55.707031 10.914062 -56.296875 12.625 -56.296875 C 14.34375 -56.296875 16.160156 -55.921875 18.078125 -55.171875 C 20.003906 -54.421875 21.597656 -54.046875 22.859375 -54.046875 C 24.128906 -54.046875 25.378906 -54.75 26.609375 -56.15625 L 28.5 -56.015625 L 28.4375 -55.390625 C 28.25 -53.128906 27.460938 -51.398438 26.078125 -50.203125 C 24.691406 -49.015625 23.0625 -48.421875 21.1875 -48.421875 Z M 20.546875 -48.421875 "/></g></g></g><g fill="#002498" fill-opacity="1"><g transform="translate(315.251199, 214.777853)"><g><path d="M 30.328125 -36.953125 L 30.328125 -8.578125 C 30.328125 -2.390625 27.421875 0.703125 21.609375 0.703125 L 12.25 0.703125 C 6.425781 0.703125 3.515625 -2.390625 3.515625 -8.578125 L 3.515625 -36.953125 C 3.515625 -43.140625 6.425781 -46.234375 12.25 -46.234375 L 21.609375 -46.234375 C 27.421875 -46.234375 30.328125 -43.140625 30.328125 -36.953125 Z M 20.484375 -7.453125 L 20.484375 -38.140625 C 20.484375 -38.515625 20.351562 -38.84375 20.09375 -39.125 C 19.832031 -39.40625 19.515625 -39.546875 19.140625 -39.546875 L 14.703125 -39.546875 C 14.328125 -39.546875 14.007812 -39.40625 13.75 -39.125 C 13.5 -38.84375 13.375 -38.515625 13.375 -38.140625 L 13.375 -7.453125 C 13.375 -7.078125 13.5 -6.75 13.75 -6.46875 C 14.007812 -6.1875 14.328125 -6.046875 14.703125 -6.046875 L 19.140625 -6.046875 C 19.515625 -6.046875 19.832031 -6.1875 20.09375 -6.46875 C 20.351562 -6.75 20.484375 -7.078125 20.484375 -7.453125 Z M 20.484375 -7.453125 "/></g></g></g><g clip-path="url(#f3dda615b2)"><path fill="#ffa300" d="M 85.585938 156.203125 L 171.332031 100.730469 C 171.332031 100.730469 257.074219 156.203125 257.074219 156.203125 C 257.960938 156.777344 259.148438 156.523438 259.722656 155.636719 C 260.296875 154.75 260.042969 153.5625 259.15625 152.988281 C 259.15625 152.988281 172.371094 96.84375 172.371094 96.84375 C 171.738281 96.433594 170.921875 96.433594 170.292969 96.84375 C 170.292969 96.84375 83.503906 152.988281 83.503906 152.988281 C 82.617188 153.5625 82.363281 154.75 82.9375 155.636719 C 83.511719 156.523438 84.699219 156.777344 85.585938 156.203125 Z M 85.585938 156.203125 " fill-opacity="1" fill-rule="evenodd"/></g><g clip-path="url(#96d2d30b3c)"><path fill="#ffa300" d="M 192.53125 112.074219 L 208.300781 101.871094 C 208.300781 101.871094 289.367188 155.050781 289.367188 155.050781 C 290.25 155.632812 291.441406 155.382812 292.019531 154.5 C 292.597656 153.617188 292.351562 152.429688 291.46875 151.847656 C 291.46875 151.847656 209.359375 97.984375 209.359375 97.984375 C 208.726562 97.566406 207.90625 97.5625 207.269531 97.976562 C 207.269531 97.976562 200.285156 102.492188 190.449219 108.859375 C 189.5625 109.433594 189.304688 110.617188 189.882812 111.507812 C 190.453125 112.394531 191.640625 112.648438 192.53125 112.074219 Z M 192.53125 112.074219 " fill-opacity="1" fill-rule="evenodd"/></g><path fill="#ffa300" d="M 132.160156 124.351562 L 132.160156 109.886719 C 132.160156 108.835938 131.304688 107.980469 130.25 107.980469 L 114.296875 107.980469 C 113.238281 107.980469 112.386719 108.835938 112.386719 109.886719 L 112.386719 135.347656 C 112.386719 136.398438 113.238281 137.253906 114.296875 137.253906 C 115.347656 137.253906 116.207031 136.398438 116.207031 135.347656 L 116.207031 111.792969 C 116.207031 111.792969 128.34375 111.792969 128.34375 111.792969 L 128.34375 124.351562 C 128.34375 125.402344 129.199219 126.257812 130.25 126.257812 C 131.304688 126.257812 132.160156 125.402344 132.160156 124.351562 Z M 132.160156 124.351562 " fill-opacity="1" fill-rule="evenodd"/><g fill="#ffa300" fill-opacity="1"><g transform="translate(70.183834, 255.168571)"><g><path d="M 9.9375 -20.828125 C 9.9375 -21.023438 10.035156 -21.125 10.234375 -21.125 L 11.765625 -21.125 C 11.972656 -21.125 12.078125 -21.023438 12.078125 -20.828125 L 12.078125 -0.296875 C 12.078125 -0.0976562 11.972656 0 11.765625 0 L 10.234375 0 C 10.035156 0 9.9375 -0.0976562 9.9375 -0.296875 L 9.9375 -9.515625 C 9.9375 -9.585938 9.894531 -9.625 9.8125 -9.625 L 4.4375 -9.625 C 4.351562 -9.625 4.3125 -9.585938 4.3125 -9.515625 L 4.3125 -0.296875 C 4.3125 -0.0976562 4.210938 0 4.015625 0 L 2.46875 0 C 2.269531 0 2.171875 -0.0976562 2.171875 -0.296875 L 2.171875 -20.828125 C 2.171875 -21.023438 2.269531 -21.125 2.46875 -21.125 L 4.015625 -21.125 C 4.210938 -21.125 4.3125 -21.023438 4.3125 -20.828125 L 4.3125 -11.65625 C 4.3125 -11.570312 4.351562 -11.53125 4.4375 -11.53125 L 9.8125 -11.53125 C 9.894531 -11.53125 9.9375 -11.570312 9.9375 -11.65625 Z M 9.9375 -20.828125 "/></g></g></g><g fill="#ffa300" fill-opacity="1"><g transform="translate(93.581073, 255.168571)"><g><path d="M 6.859375 0.234375 C 5.304688 0.234375 4.050781 -0.242188 3.09375 -1.203125 C 2.132812 -2.171875 1.65625 -3.453125 1.65625 -5.046875 L 1.65625 -16.09375 C 1.65625 -17.675781 2.132812 -18.953125 3.09375 -19.921875 C 4.050781 -20.890625 5.304688 -21.375 6.859375 -21.375 C 8.421875 -21.375 9.6875 -20.890625 10.65625 -19.921875 C 11.625 -18.953125 12.109375 -17.675781 12.109375 -16.09375 L 12.109375 -5.046875 C 12.109375 -3.472656 11.625 -2.195312 10.65625 -1.21875 C 9.6875 -0.25 8.421875 0.234375 6.859375 0.234375 Z M 6.859375 -1.625 C 7.773438 -1.625 8.519531 -1.929688 9.09375 -2.546875 C 9.675781 -3.160156 9.96875 -3.953125 9.96875 -4.921875 L 9.96875 -16.1875 C 9.96875 -17.164062 9.675781 -17.960938 9.09375 -18.578125 C 8.519531 -19.191406 7.773438 -19.5 6.859375 -19.5 C 5.953125 -19.5 5.210938 -19.191406 4.640625 -18.578125 C 4.078125 -17.960938 3.796875 -17.164062 3.796875 -16.1875 L 3.796875 -4.921875 C 3.796875 -3.953125 4.078125 -3.160156 4.640625 -2.546875 C 5.210938 -1.929688 5.953125 -1.625 6.859375 -1.625 Z M 6.859375 -1.625 "/></g></g></g><g fill="#ffa300" fill-opacity="1"><g transform="translate(116.495313, 255.168571)"><g><path d="M 11.375 -20.921875 C 11.4375 -21.054688 11.5625 -21.125 11.75 -21.125 L 13.3125 -21.125 C 13.507812 -21.125 13.609375 -21.023438 13.609375 -20.828125 L 13.609375 -0.296875 C 13.609375 -0.0976562 13.507812 0 13.3125 0 L 11.765625 0 C 11.566406 0 11.46875 -0.0976562 11.46875 -0.296875 L 11.46875 -16.484375 C 11.46875 -16.546875 11.453125 -16.578125 11.421875 -16.578125 C 11.390625 -16.578125 11.359375 -16.554688 11.328125 -16.515625 L 8.1875 -9.984375 C 8.125 -9.847656 8.019531 -9.78125 7.875 -9.78125 C 7.71875 -9.78125 7.609375 -9.847656 7.546875 -9.984375 L 4.40625 -16.484375 C 4.363281 -16.523438 4.328125 -16.546875 4.296875 -16.546875 C 4.265625 -16.546875 4.25 -16.515625 4.25 -16.453125 L 4.25 -0.296875 C 4.25 -0.0976562 4.148438 0 3.953125 0 L 2.421875 0 C 2.210938 0 2.109375 -0.0976562 2.109375 -0.296875 L 2.109375 -20.828125 C 2.109375 -21.023438 2.210938 -21.125 2.421875 -21.125 L 3.984375 -21.125 C 4.160156 -21.125 4.28125 -21.054688 4.34375 -20.921875 L 7.78125 -13.953125 C 7.800781 -13.910156 7.832031 -13.890625 7.875 -13.890625 C 7.914062 -13.890625 7.945312 -13.910156 7.96875 -13.953125 Z M 11.375 -20.921875 "/></g></g></g><g fill="#ffa300" fill-opacity="1"><g transform="translate(141.371734, 255.168571)"><g><path d="M 11.75 -19.5625 C 11.75 -19.363281 11.644531 -19.265625 11.4375 -19.265625 L 4.4375 -19.265625 C 4.351562 -19.265625 4.3125 -19.222656 4.3125 -19.140625 L 4.3125 -11.65625 C 4.3125 -11.570312 4.351562 -11.53125 4.4375 -11.53125 L 8.84375 -11.53125 C 9.039062 -11.53125 9.140625 -11.429688 9.140625 -11.234375 L 9.140625 -9.9375 C 9.140625 -9.726562 9.039062 -9.625 8.84375 -9.625 L 4.4375 -9.625 C 4.351562 -9.625 4.3125 -9.585938 4.3125 -9.515625 L 4.3125 -2 C 4.3125 -1.914062 4.351562 -1.875 4.4375 -1.875 L 11.4375 -1.875 C 11.644531 -1.875 11.75 -1.769531 11.75 -1.5625 L 11.75 -0.296875 C 11.75 -0.0976562 11.644531 0 11.4375 0 L 2.46875 0 C 2.269531 0 2.171875 -0.0976562 2.171875 -0.296875 L 2.171875 -20.828125 C 2.171875 -21.023438 2.269531 -21.125 2.46875 -21.125 L 11.4375 -21.125 C 11.644531 -21.125 11.75 -21.023438 11.75 -20.828125 Z M 11.75 -19.5625 "/></g></g></g><g fill="#ffa300" fill-opacity="1"><g transform="translate(163.470904, 255.168571)"><g/></g></g><g fill="#ffa300" fill-opacity="1"><g transform="translate(178.657132, 255.168571)"><g><path d="M 6.796875 0.234375 C 5.242188 0.234375 4 -0.234375 3.0625 -1.171875 C 2.125 -2.117188 1.65625 -3.390625 1.65625 -4.984375 L 1.65625 -16.1875 C 1.65625 -17.75 2.125 -19.003906 3.0625 -19.953125 C 4 -20.898438 5.242188 -21.375 6.796875 -21.375 C 8.359375 -21.375 9.609375 -20.90625 10.546875 -19.96875 C 11.484375 -19.03125 11.953125 -17.769531 11.953125 -16.1875 L 11.953125 -15.671875 C 11.953125 -15.460938 11.851562 -15.359375 11.65625 -15.359375 L 10.078125 -15.28125 C 9.878906 -15.28125 9.78125 -15.378906 9.78125 -15.578125 L 9.78125 -16.328125 C 9.78125 -17.273438 9.507812 -18.039062 8.96875 -18.625 C 8.425781 -19.207031 7.703125 -19.5 6.796875 -19.5 C 5.910156 -19.5 5.1875 -19.207031 4.625 -18.625 C 4.070312 -18.039062 3.796875 -17.273438 3.796875 -16.328125 L 3.796875 -4.796875 C 3.796875 -3.847656 4.070312 -3.082031 4.625 -2.5 C 5.1875 -1.914062 5.910156 -1.625 6.796875 -1.625 C 7.703125 -1.625 8.425781 -1.914062 8.96875 -2.5 C 9.507812 -3.082031 9.78125 -3.847656 9.78125 -4.796875 L 9.78125 -5.546875 C 9.78125 -5.753906 9.878906 -5.859375 10.078125 -5.859375 L 11.65625 -5.765625 C 11.851562 -5.765625 11.953125 -5.664062 11.953125 -5.46875 L 11.953125 -4.984375 C 11.953125 -3.390625 11.476562 -2.117188 10.53125 -1.171875 C 9.582031 -0.234375 8.335938 0.234375 6.796875 0.234375 Z M 6.796875 0.234375 "/></g></g></g><g fill="#ffa300" fill-opacity="1"><g transform="translate(201.269489, 255.168571)"><g><path d="M 11.75 -19.5625 C 11.75 -19.363281 11.644531 -19.265625 11.4375 -19.265625 L 4.4375 -19.265625 C 4.351562 -19.265625 4.3125 -19.222656 4.3125 -19.140625 L 4.3125 -11.65625 C 4.3125 -11.570312 4.351562 -11.53125 4.4375 -11.53125 L 8.84375 -11.53125 C 9.039062 -11.53125 9.140625 -11.429688 9.140625 -11.234375 L 9.140625 -9.9375 C 9.140625 -9.726562 9.039062 -9.625 8.84375 -9.625 L 4.4375 -9.625 C 4.351562 -9.625 4.3125 -9.585938 4.3125 -9.515625 L 4.3125 -2 C 4.3125 -1.914062 4.351562 -1.875 4.4375 -1.875 L 11.4375 -1.875 C 11.644531 -1.875 11.75 -1.769531 11.75 -1.5625 L 11.75 -0.296875 C 11.75 -0.0976562 11.644531 0 11.4375 0 L 2.46875 0 C 2.269531 0 2.171875 -0.0976562 2.171875 -0.296875 L 2.171875 -20.828125 C 2.171875 -21.023438 2.269531 -21.125 2.46875 -21.125 L 11.4375 -21.125 C 11.644531 -21.125 11.75 -21.023438 11.75 -20.828125 Z M 11.75 -19.5625 "/></g></g></g><g fill="#ffa300" fill-opacity="1"><g transform="translate(223.368658, 255.168571)"><g><path d="M 10.625 -20.828125 C 10.625 -21.023438 10.722656 -21.125 10.921875 -21.125 L 12.4375 -21.125 C 12.632812 -21.125 12.734375 -21.023438 12.734375 -20.828125 L 12.734375 -0.296875 C 12.734375 -0.0976562 12.632812 0 12.4375 0 L 10.65625 0 C 10.5 0 10.390625 -0.078125 10.328125 -0.234375 L 4.4375 -15.84375 C 4.414062 -15.90625 4.382812 -15.929688 4.34375 -15.921875 C 4.300781 -15.910156 4.28125 -15.875 4.28125 -15.8125 L 4.3125 -0.296875 C 4.3125 -0.0976562 4.210938 0 4.015625 0 L 2.46875 0 C 2.269531 0 2.171875 -0.0976562 2.171875 -0.296875 L 2.171875 -20.828125 C 2.171875 -21.023438 2.269531 -21.125 2.46875 -21.125 L 4.21875 -21.125 C 4.382812 -21.125 4.5 -21.046875 4.5625 -20.890625 L 10.46875 -5.25 C 10.488281 -5.1875 10.519531 -5.160156 10.5625 -5.171875 C 10.601562 -5.179688 10.625 -5.21875 10.625 -5.28125 Z M 10.625 -20.828125 "/></g></g></g><g fill="#ffa300" fill-opacity="1"><g transform="translate(247.39983, 255.168571)"><g><path d="M 11.4375 -21.125 C 11.644531 -21.125 11.75 -21.023438 11.75 -20.828125 L 11.75 -19.5625 C 11.75 -19.363281 11.644531 -19.265625 11.4375 -19.265625 L 7.453125 -19.265625 C 7.367188 -19.265625 7.328125 -19.222656 7.328125 -19.140625 L 7.328125 -0.296875 C 7.328125 -0.0976562 7.226562 0 7.03125 0 L 5.5 0 C 5.289062 0 5.1875 -0.0976562 5.1875 -0.296875 L 5.1875 -19.140625 C 5.1875 -19.222656 5.148438 -19.265625 5.078125 -19.265625 L 1.328125 -19.265625 C 1.128906 -19.265625 1.03125 -19.363281 1.03125 -19.5625 L 1.03125 -20.828125 C 1.03125 -21.023438 1.128906 -21.125 1.328125 -21.125 Z M 11.4375 -21.125 "/></g></g></g><g fill="#ffa300" fill-opacity="1"><g transform="translate(269.317885, 255.168571)"><g><path d="M 11.75 -19.5625 C 11.75 -19.363281 11.644531 -19.265625 11.4375 -19.265625 L 4.4375 -19.265625 C 4.351562 -19.265625 4.3125 -19.222656 4.3125 -19.140625 L 4.3125 -11.65625 C 4.3125 -11.570312 4.351562 -11.53125 4.4375 -11.53125 L 8.84375 -11.53125 C 9.039062 -11.53125 9.140625 -11.429688 9.140625 -11.234375 L 9.140625 -9.9375 C 9.140625 -9.726562 9.039062 -9.625 8.84375 -9.625 L 4.4375 -9.625 C 4.351562 -9.625 4.3125 -9.585938 4.3125 -9.515625 L 4.3125 -2 C 4.3125 -1.914062 4.351562 -1.875 4.4375 -1.875 L 11.4375 -1.875 C 11.644531 -1.875 11.75 -1.769531 11.75 -1.5625 L 11.75 -0.296875 C 11.75 -0.0976562 11.644531 0 11.4375 0 L 2.46875 0 C 2.269531 0 2.171875 -0.0976562 2.171875 -0.296875 L 2.171875 -20.828125 C 2.171875 -21.023438 2.269531 -21.125 2.46875 -21.125 L 11.4375 -21.125 C 11.644531 -21.125 11.75 -21.023438 11.75 -20.828125 Z M 11.75 -19.5625 "/></g></g></g><g fill="#ffa300" fill-opacity="1"><g transform="translate(291.417043, 255.168571)"><g><path d="M 10.625 0 C 10.445312 0 10.328125 -0.078125 10.265625 -0.234375 L 7.1875 -9.5625 C 7.164062 -9.625 7.125 -9.65625 7.0625 -9.65625 L 4.4375 -9.65625 C 4.351562 -9.65625 4.3125 -9.617188 4.3125 -9.546875 L 4.3125 -0.296875 C 4.3125 -0.0976562 4.210938 0 4.015625 0 L 2.46875 0 C 2.269531 0 2.171875 -0.0976562 2.171875 -0.296875 L 2.171875 -20.828125 C 2.171875 -21.023438 2.269531 -21.125 2.46875 -21.125 L 7.453125 -21.125 C 8.921875 -21.125 10.109375 -20.585938 11.015625 -19.515625 C 11.921875 -18.441406 12.375 -17.039062 12.375 -15.3125 C 12.375 -14 12.09375 -12.867188 11.53125 -11.921875 C 10.96875 -10.972656 10.203125 -10.3125 9.234375 -9.9375 C 9.148438 -9.914062 9.117188 -9.863281 9.140625 -9.78125 L 12.4375 -0.328125 L 12.46875 -0.21875 C 12.46875 -0.0703125 12.378906 0 12.203125 0 Z M 4.4375 -19.265625 C 4.351562 -19.265625 4.3125 -19.222656 4.3125 -19.140625 L 4.3125 -11.5 C 4.3125 -11.414062 4.351562 -11.375 4.4375 -11.375 L 7.15625 -11.375 C 8.082031 -11.375 8.828125 -11.734375 9.390625 -12.453125 C 9.953125 -13.171875 10.234375 -14.125 10.234375 -15.3125 C 10.234375 -16.5 9.953125 -17.453125 9.390625 -18.171875 C 8.828125 -18.898438 8.082031 -19.265625 7.15625 -19.265625 Z M 4.4375 -19.265625 "/></g></g></g></svg>