<svg width="480" height="254" viewBox="0 0 480 254" fill="none" xmlns="http://www.w3.org/2000/svg">
<rect width="480" height="254" fill="white"/>
<path d="M52.5444 164.435V155.039H65.0236V162.935C65.0236 171.185 61.1382 175.31 53.3778 175.31H41.5653C33.7996 175.31 29.9194 171.185 29.9194 162.935V125.102C29.9194 116.852 33.7996 112.727 41.5653 112.727H53.3778C61.1382 112.727 65.0236 116.852 65.0236 125.102V130.831H52.5444V123.518C52.5444 123.018 52.3674 122.581 52.0236 122.206C51.6746 121.831 51.2528 121.643 50.7528 121.643H44.8361C44.3361 121.643 43.909 121.831 43.5653 122.206C43.2319 122.581 43.0653 123.018 43.0653 123.518V164.435C43.0653 164.935 43.2319 165.372 43.5653 165.747C43.909 166.122 44.3361 166.31 44.8361 166.31H50.7528C51.2528 166.31 51.6746 166.122 52.0236 165.747C52.3674 165.372 52.5444 164.935 52.5444 164.435Z" fill="#002498"/>
<path d="M108.643 125.102V162.935C108.643 171.185 104.768 175.31 97.0176 175.31H84.5384C76.7728 175.31 72.8926 171.185 72.8926 162.935V125.102C72.8926 116.852 76.7728 112.727 84.5384 112.727H97.0176C104.768 112.727 108.643 116.852 108.643 125.102ZM95.5176 164.435V123.518C95.5176 123.018 95.3405 122.581 94.9967 122.206C94.6478 121.831 94.2259 121.643 93.7259 121.643H87.8092C87.3092 121.643 86.8822 121.831 86.5384 122.206C86.2051 122.581 86.0384 123.018 86.0384 123.518V164.435C86.0384 164.935 86.2051 165.372 86.5384 165.747C86.8822 166.122 87.3092 166.31 87.8092 166.31H93.7259C94.2259 166.31 94.6478 166.122 94.9967 165.747C95.3405 165.372 95.5176 164.935 95.5176 164.435Z" fill="#002498"/>
<path d="M153.118 174.372H139.993V123.977C139.993 123.477 139.816 123.039 139.472 122.664C139.123 122.289 138.701 122.102 138.201 122.102H133.139C132.639 122.102 132.212 122.289 131.868 122.664C131.519 123.039 131.347 123.477 131.347 123.977V174.372H118.222V125.102C118.222 116.852 122.097 112.727 129.847 112.727H141.493C149.243 112.727 153.118 116.852 153.118 125.102V174.372Z" fill="#002498"/>
<path d="M195.623 129.622H183.144V124.831C183.144 124.331 182.967 123.893 182.623 123.518C182.29 123.143 181.873 122.956 181.373 122.956H176.206C175.706 122.956 175.279 123.143 174.936 123.518C174.587 123.893 174.415 124.331 174.415 124.831V135.622C174.415 136.122 174.587 136.56 174.936 136.935C175.279 137.31 175.706 137.497 176.206 137.497H184.644C192.404 137.622 196.29 141.747 196.29 149.872V162.935C196.29 171.185 192.404 175.31 184.644 175.31H173.581C165.816 175.31 161.936 171.185 161.936 162.935V156.643H174.415V163.393C174.415 163.893 174.587 164.331 174.936 164.706C175.279 165.081 175.706 165.268 176.206 165.268H182.019C182.519 165.268 182.941 165.081 183.29 164.706C183.633 164.331 183.811 163.893 183.811 163.393V151.477C183.811 150.977 183.633 150.539 183.29 150.164C182.941 149.789 182.519 149.602 182.019 149.602H173.581C165.816 149.602 161.936 145.471 161.936 137.206V125.102C161.936 116.852 165.816 112.727 173.581 112.727H183.998C191.748 112.727 195.623 116.852 195.623 125.102V129.622Z" fill="#002498"/>
<path d="M201.451 124.831V113.664H234.284V124.831H224.43V174.372H211.284V124.831H201.451Z" fill="#002498"/>
<path d="M253.428 149.497V174.372H240.282V113.664H263.657C271.407 113.664 275.282 117.789 275.282 126.039V133.081C275.282 138.096 273.496 141.289 269.928 142.664C273.063 143.789 274.636 146.352 274.636 150.352V174.372H261.491V151.393C261.491 150.133 260.897 149.497 259.72 149.497H253.428ZM253.428 122.581V140.31H260.366C260.866 140.31 261.287 140.122 261.636 139.747C261.98 139.372 262.157 138.935 262.157 138.435V124.456C262.157 123.956 261.98 123.518 261.636 123.143C261.287 122.768 260.866 122.581 260.366 122.581H253.428Z" fill="#002498"/>
<path d="M305.412 113.664H318.537V162.935C318.537 171.185 314.662 175.31 306.912 175.31H295.267C287.517 175.31 283.642 171.185 283.642 162.935V113.664H296.767V164.06C296.767 164.56 296.938 164.997 297.287 165.372C297.631 165.747 298.058 165.935 298.558 165.935H303.621C304.121 165.935 304.543 165.747 304.892 165.372C305.235 164.997 305.412 164.56 305.412 164.06V113.664Z" fill="#002498"/>
<path d="M332.417 184.31L341.063 175.31H339.188C331.423 175.31 327.542 171.185 327.542 162.935V125.102C327.542 116.852 331.423 112.727 339.188 112.727H351.001C358.761 112.727 362.647 116.852 362.647 125.102V130.831H350.167V123.518C350.167 123.018 349.99 122.581 349.647 122.206C349.298 121.831 348.876 121.643 348.376 121.643H342.459C341.959 121.643 341.532 121.831 341.188 122.206C340.855 122.581 340.688 123.018 340.688 123.518V164.435C340.688 164.935 340.855 165.372 341.188 165.747C341.532 166.122 341.959 166.31 342.459 166.31H348.376C348.876 166.31 349.298 166.122 349.647 165.747C349.99 165.372 350.167 164.935 350.167 164.435V155.039H362.647V162.935C362.647 171.185 358.761 175.31 351.001 175.31H350.626L346.209 184.31H332.417Z" fill="#002498"/>
<path d="M394.641 112.725C402.391 112.725 406.266 116.85 406.266 125.1V174.371H393.141V154.017H383.661V174.371H370.516V125.1C370.516 116.85 374.396 112.725 382.161 112.725H394.641ZM383.661 143.871H393.141V123.517C393.141 123.017 392.964 122.579 392.62 122.204C392.271 121.829 391.849 121.642 391.349 121.642H385.432C384.932 121.642 384.505 121.829 384.161 122.204C383.828 122.579 383.661 123.017 383.661 123.517V143.871ZM393.224 109.809C391.542 109.632 389.557 109.1 387.266 108.225C384.984 107.35 383.25 106.85 382.057 106.725C379.5 106.725 377.437 107.694 375.87 109.621L373.328 109.434L373.432 108.6C373.682 105.533 374.708 103.22 376.516 101.663C378.333 100.095 380.38 99.3086 382.661 99.3086C384.953 99.3086 387.375 99.8086 389.932 100.809C392.5 101.809 394.625 102.309 396.307 102.309C398 102.309 399.667 101.371 401.307 99.4961L403.828 99.6836L403.745 100.517C403.495 103.533 402.443 105.84 400.599 107.434C398.75 109.017 396.578 109.809 394.078 109.809H393.224Z" fill="#002498"/>
<path d="M451.772 125.102V162.935C451.772 171.185 447.897 175.31 440.147 175.31H427.668C419.903 175.31 416.022 171.185 416.022 162.935V125.102C416.022 116.852 419.903 112.727 427.668 112.727H440.147C447.897 112.727 451.772 116.852 451.772 125.102ZM438.647 164.435V123.518C438.647 123.018 438.47 122.581 438.127 122.206C437.778 121.831 437.356 121.643 436.856 121.643H430.939C430.439 121.643 430.012 121.831 429.668 122.206C429.335 122.581 429.168 123.018 429.168 123.518V164.435C429.168 164.935 429.335 165.372 429.668 165.747C430.012 166.122 430.439 166.31 430.939 166.31H436.856C437.356 166.31 437.778 166.122 438.127 165.747C438.47 165.372 438.647 164.935 438.647 164.435Z" fill="#002498"/>
<mask id="mask0_562_142" style="mask-type:luminance" maskUnits="userSpaceOnUse" x="100" y="16" width="240" height="82">
<path d="M100.849 16.5312H339V97.3333H100.849V16.5312Z" fill="white"/>
</mask>
<g mask="url(#mask0_562_142)">
<path fill-rule="evenodd" clip-rule="evenodd" d="M105.115 96.2708L219.443 22.3073L333.766 96.2708C334.948 97.0365 336.531 96.6979 337.297 95.5156C338.063 94.3333 337.724 92.75 336.542 91.9844L220.828 17.125C219.985 16.5781 218.896 16.5781 218.058 17.125L102.339 91.9844C101.156 92.75 100.818 94.3333 101.584 95.5156C102.349 96.6979 103.933 97.0365 105.115 96.2708Z" fill="#FFA300"/>
</g>
<mask id="mask1_562_142" style="mask-type:luminance" maskUnits="userSpaceOnUse" x="243" y="17" width="138" height="79">
<path d="M243 17.332H380.849V95.9987H243V17.332Z" fill="white"/>
</mask>
<g mask="url(#mask1_562_142)">
<path fill-rule="evenodd" clip-rule="evenodd" d="M247.708 37.4304L268.734 23.8262L376.823 94.7324C378 95.5085 379.589 95.1752 380.359 93.9981C381.13 92.821 380.802 91.2377 379.625 90.4616L270.146 18.6439C269.302 18.0866 268.208 18.0814 267.359 18.6335C267.359 18.6335 258.047 24.6543 244.932 33.1439C243.75 33.9095 243.406 35.4877 244.177 36.6752C244.938 37.8574 246.521 38.196 247.708 37.4304Z" fill="#FFA300"/>
</g>
<path fill-rule="evenodd" clip-rule="evenodd" d="M167.214 53.8008V34.5143C167.214 33.1133 166.073 31.9727 164.667 31.9727H143.396C141.985 31.9727 140.849 33.1133 140.849 34.5143V68.4622C140.849 69.8633 141.985 71.0039 143.396 71.0039C144.797 71.0039 145.943 69.8633 145.943 68.4622V37.056H162.125V53.8008C162.125 55.2018 163.266 56.3424 164.667 56.3424C166.073 56.3424 167.214 55.2018 167.214 53.8008Z" fill="#FFA300"/>
<path d="M97.8283 200.454C97.8283 200.194 97.9585 200.059 98.2241 200.059H100.266C100.542 200.059 100.682 200.194 100.682 200.454V227.829C100.682 228.095 100.542 228.225 100.266 228.225H98.2241C97.9585 228.225 97.8283 228.095 97.8283 227.829V215.538C97.8283 215.444 97.771 215.392 97.6616 215.392H90.495C90.3804 215.392 90.3283 215.444 90.3283 215.538V227.829C90.3283 228.095 90.1929 228.225 89.9325 228.225H87.87C87.6043 228.225 87.4741 228.095 87.4741 227.829V200.454C87.4741 200.194 87.6043 200.059 87.87 200.059H89.9325C90.1929 200.059 90.3283 200.194 90.3283 200.454V212.684C90.3283 212.798 90.3804 212.85 90.495 212.85H97.6616C97.771 212.85 97.8283 212.798 97.8283 212.684V200.454Z" fill="#FFA300"/>
<path d="M124.92 228.539C122.847 228.539 121.176 227.904 119.9 226.622C118.618 225.331 117.983 223.622 117.983 221.497V206.768C117.983 204.659 118.618 202.956 119.9 201.664C121.176 200.372 122.847 199.727 124.92 199.727C127.004 199.727 128.691 200.372 129.983 201.664C131.275 202.956 131.92 204.659 131.92 206.768V221.497C131.92 223.596 131.275 225.299 129.983 226.602C128.691 227.893 127.004 228.539 124.92 228.539ZM124.92 226.06C126.139 226.06 127.134 225.654 127.9 224.831C128.676 224.013 129.066 222.956 129.066 221.664V206.643C129.066 205.341 128.676 204.279 127.9 203.456C127.134 202.638 126.139 202.227 124.92 202.227C123.712 202.227 122.722 202.638 121.962 203.456C121.212 204.279 120.837 205.341 120.837 206.643V221.664C120.837 222.956 121.212 224.013 121.962 224.831C122.722 225.654 123.712 226.06 124.92 226.06Z" fill="#FFA300"/>
<path d="M161.494 200.329C161.577 200.152 161.744 200.059 161.994 200.059H164.077C164.338 200.059 164.473 200.194 164.473 200.454V227.829C164.473 228.095 164.338 228.225 164.077 228.225H162.015C161.749 228.225 161.619 228.095 161.619 227.829V206.246C161.619 206.163 161.598 206.121 161.556 206.121C161.515 206.121 161.473 206.152 161.431 206.204L157.244 214.913C157.16 215.095 157.02 215.184 156.827 215.184C156.619 215.184 156.473 215.095 156.39 214.913L152.202 206.246C152.145 206.194 152.098 206.163 152.056 206.163C152.015 206.163 151.994 206.204 151.994 206.288V227.829C151.994 228.095 151.858 228.225 151.598 228.225H149.556C149.275 228.225 149.14 228.095 149.14 227.829V200.454C149.14 200.194 149.275 200.059 149.556 200.059H151.64C151.874 200.059 152.035 200.152 152.119 200.329L156.702 209.621C156.728 209.678 156.77 209.704 156.827 209.704C156.879 209.704 156.921 209.678 156.952 209.621L161.494 200.329Z" fill="#FFA300"/>
<path d="M195.162 202.142C195.162 202.408 195.022 202.538 194.746 202.538H185.412C185.298 202.538 185.246 202.595 185.246 202.704V212.684C185.246 212.798 185.298 212.85 185.412 212.85H191.287C191.548 212.85 191.683 212.986 191.683 213.246V214.975C191.683 215.257 191.548 215.392 191.287 215.392H185.412C185.298 215.392 185.246 215.444 185.246 215.538V225.559C185.246 225.673 185.298 225.725 185.412 225.725H194.746C195.022 225.725 195.162 225.866 195.162 226.142V227.829C195.162 228.095 195.022 228.225 194.746 228.225H182.787C182.522 228.225 182.392 228.095 182.392 227.829V200.454C182.392 200.194 182.522 200.059 182.787 200.059H194.746C195.022 200.059 195.162 200.194 195.162 200.454V202.142Z" fill="#FFA300"/>
<path d="M238.272 228.539C236.199 228.539 234.543 227.914 233.293 226.664C232.043 225.404 231.418 223.706 231.418 221.581V206.643C231.418 204.56 232.043 202.888 233.293 201.622C234.543 200.362 236.199 199.727 238.272 199.727C240.355 199.727 242.022 200.352 243.272 201.602C244.522 202.852 245.147 204.534 245.147 206.643V207.331C245.147 207.612 245.012 207.747 244.751 207.747L242.647 207.852C242.382 207.852 242.251 207.721 242.251 207.456V206.456C242.251 205.195 241.887 204.174 241.168 203.393C240.444 202.617 239.48 202.227 238.272 202.227C237.09 202.227 236.126 202.617 235.376 203.393C234.637 204.174 234.272 205.195 234.272 206.456V221.831C234.272 223.096 234.637 224.117 235.376 224.893C236.126 225.674 237.09 226.06 238.272 226.06C239.48 226.06 240.444 225.674 241.168 224.893C241.887 224.117 242.251 223.096 242.251 221.831V220.831C242.251 220.555 242.382 220.414 242.647 220.414L244.751 220.539C245.012 220.539 245.147 220.674 245.147 220.935V221.581C245.147 223.706 244.512 225.404 243.251 226.664C241.986 227.914 240.324 228.539 238.272 228.539Z" fill="#FFA300"/>
<path d="M275.026 202.142C275.026 202.408 274.886 202.538 274.61 202.538H265.276C265.162 202.538 265.11 202.595 265.11 202.704V212.684C265.11 212.798 265.162 212.85 265.276 212.85H271.151C271.412 212.85 271.547 212.986 271.547 213.246V214.975C271.547 215.257 271.412 215.392 271.151 215.392H265.276C265.162 215.392 265.11 215.444 265.11 215.538V225.559C265.11 225.673 265.162 225.725 265.276 225.725H274.61C274.886 225.725 275.026 225.866 275.026 226.142V227.829C275.026 228.095 274.886 228.225 274.61 228.225H262.651C262.386 228.225 262.255 228.095 262.255 227.829V200.454C262.255 200.194 262.386 200.059 262.651 200.059H274.61C274.886 200.059 275.026 200.194 275.026 200.454V202.142Z" fill="#FFA300"/>
<path d="M302.992 200.454C302.992 200.194 303.122 200.059 303.387 200.059H305.408C305.669 200.059 305.804 200.194 305.804 200.454V227.829C305.804 228.095 305.669 228.225 305.408 228.225H303.033C302.825 228.225 302.679 228.121 302.596 227.913L294.742 207.1C294.71 207.017 294.669 206.986 294.617 206.996C294.559 207.012 294.533 207.059 294.533 207.142L294.575 227.829C294.575 228.095 294.439 228.225 294.179 228.225H292.117C291.851 228.225 291.721 228.095 291.721 227.829V200.454C291.721 200.194 291.851 200.059 292.117 200.059H294.45C294.669 200.059 294.825 200.163 294.908 200.371L302.783 221.225C302.809 221.309 302.851 221.345 302.908 221.329C302.96 221.319 302.992 221.267 302.992 221.184V200.454Z" fill="#FFA300"/>
<path d="M336.116 200.059C336.392 200.059 336.533 200.194 336.533 200.454V202.142C336.533 202.408 336.392 202.538 336.116 202.538H330.804C330.689 202.538 330.637 202.595 330.637 202.704V227.829C330.637 228.095 330.502 228.225 330.241 228.225H328.2C327.918 228.225 327.783 228.095 327.783 227.829V202.704C327.783 202.595 327.731 202.538 327.637 202.538H322.637C322.371 202.538 322.241 202.408 322.241 202.142V200.454C322.241 200.194 322.371 200.059 322.637 200.059H336.116Z" fill="#FFA300"/>
<path d="M365.757 202.142C365.757 202.408 365.617 202.538 365.34 202.538H356.007C355.893 202.538 355.84 202.595 355.84 202.704V212.684C355.84 212.798 355.893 212.85 356.007 212.85H361.882C362.143 212.85 362.278 212.986 362.278 213.246V214.975C362.278 215.257 362.143 215.392 361.882 215.392H356.007C355.893 215.392 355.84 215.444 355.84 215.538V225.559C355.84 225.673 355.893 225.725 356.007 225.725H365.34C365.617 225.725 365.757 225.866 365.757 226.142V227.829C365.757 228.095 365.617 228.225 365.34 228.225H353.382C353.117 228.225 352.986 228.095 352.986 227.829V200.454C352.986 200.194 353.117 200.059 353.382 200.059H365.34C365.617 200.059 365.757 200.194 365.757 200.454V202.142Z" fill="#FFA300"/>
<path d="M393.723 228.225C393.483 228.225 393.327 228.121 393.244 227.913L389.14 215.475C389.108 215.392 389.056 215.35 388.973 215.35H385.473C385.358 215.35 385.306 215.402 385.306 215.496V227.829C385.306 228.095 385.171 228.225 384.91 228.225H382.848C382.582 228.225 382.452 228.095 382.452 227.829V200.454C382.452 200.194 382.582 200.059 382.848 200.059H389.494C391.452 200.059 393.035 200.777 394.244 202.204C395.452 203.637 396.056 205.507 396.056 207.809C396.056 209.559 395.681 211.069 394.931 212.329C394.181 213.595 393.16 214.475 391.869 214.975C391.754 215.007 391.713 215.074 391.744 215.184L396.14 227.788L396.181 227.934C396.181 228.132 396.062 228.225 395.827 228.225H393.723ZM385.473 202.538C385.358 202.538 385.306 202.595 385.306 202.704V212.892C385.306 213.007 385.358 213.059 385.473 213.059H389.098C390.332 213.059 391.327 212.579 392.077 211.621C392.827 210.663 393.202 209.392 393.202 207.809C393.202 206.225 392.827 204.954 392.077 203.996C391.327 203.027 390.332 202.538 389.098 202.538H385.473Z" fill="#FFA300"/>
</svg>
