<svg width="249" height="127" viewBox="0 0 249 127" fill="none" xmlns="http://www.w3.org/2000/svg">
<g clip-path="url(#clip0_562_199)">
<rect width="249" height="127" fill="white"/>
<mask id="mask0_562_199" style="mask-type:luminance" maskUnits="userSpaceOnUse" x="21" y="-17" width="116" height="121">
<path d="M137 -16.332H21V103.668H137V-16.332Z" fill="white"/>
</mask>
<g mask="url(#mask0_562_199)">
<path d="M26.9568 69.1979C26.363 68.8906 25.8109 68.375 25.3109 67.6563C24.8109 66.9323 24.4359 66.1458 24.1859 65.3021C24.0349 64.5938 23.9515 63.625 23.9359 62.4063C23.9099 61.1823 23.9463 59.901 24.0401 58.5521C24.139 57.1927 24.2849 56.0104 24.4776 55.0104C24.6338 54.3594 24.9515 53.276 25.4359 51.7604C25.9099 50.2344 26.488 48.5469 27.1651 46.6979C27.8318 44.8385 28.587 43.0469 29.4359 41.3229C30.2797 39.6042 31.1547 38.1927 32.0609 37.0938C32.962 35.9844 33.837 35.4271 34.6859 35.4271C35.087 35.4271 35.462 35.5833 35.8109 35.8854C36.1547 36.1771 36.3318 36.5052 36.3318 36.8646C36.3318 37.1146 36.2068 37.4271 35.9568 37.8021C35.7068 38.1771 35.4568 38.3646 35.2068 38.3646C35.0088 38.3646 34.6338 38.7552 34.0818 39.5313C33.5401 40.2969 32.9151 41.3594 32.2068 42.7188L31.0193 45.1146H31.6859C32.738 45.1146 33.8161 46.1927 34.9151 48.3438C35.5088 49.4427 36.1547 50.2083 36.8526 50.6354C37.5609 51.0521 38.5401 51.2604 39.7901 51.2604C41.5401 51.2604 42.863 51.1042 43.7693 50.7813C44.6703 50.4479 45.8213 49.7604 47.2276 48.7188C48.3213 47.9167 49.0922 47.5104 49.5401 47.5104C50.1911 47.5104 50.6651 47.7604 50.9568 48.2604C51.2588 48.7604 51.238 49.2604 50.8943 49.7604C50.6026 50.2604 50.0245 50.8385 49.1651 51.4896C48.3161 52.1458 47.3943 52.75 46.3943 53.3021C45.3943 53.8438 44.5193 54.2135 43.7693 54.4063C43.363 54.5208 42.8109 54.6042 42.1026 54.6563C41.4047 54.6979 40.712 54.7188 40.0193 54.7188C39.5193 54.7188 39.0505 54.7083 38.6234 54.6771C38.2068 54.651 37.8734 54.6146 37.6234 54.5729L36.9359 54.3438L36.8734 56.8854C36.8734 58.3854 36.6911 59.7604 36.3318 61.0104C35.9828 62.2604 35.4359 63.5365 34.6859 64.8438C34.087 65.8021 33.2588 66.8438 32.2068 67.9688C31.1651 69.0938 29.988 69.6563 28.6859 69.6563C28.087 69.6563 27.514 69.5 26.9568 69.1979ZM28.5401 66.3438C29.0401 66.3438 29.6026 65.9375 30.2276 65.1354C30.8526 64.3438 31.4255 63.4792 31.9568 62.5521C32.4828 61.6354 32.8161 60.974 32.9568 60.5729C33.5088 58.7292 33.6338 56.6042 33.3318 54.1979C33.2901 53.5469 33.1755 53.0729 32.9984 52.7813C32.8318 52.4792 32.4411 52.0469 31.8318 51.4896C31.4828 51.0885 31.1338 50.6927 30.7901 50.3021C30.4411 49.901 30.212 49.5938 30.1026 49.3854L29.7276 48.5521L29.2068 50.2813C28.0088 54.0885 27.3682 57.6146 27.2693 60.8646C27.2693 62.2656 27.3057 63.2031 27.3734 63.6771C27.4463 64.1615 27.5818 64.6563 27.7901 65.1563C28.1338 65.9479 28.3838 66.3438 28.5401 66.3438ZM34.9984 31.8229C34.1338 32.4792 33.4359 32.8021 32.8943 32.8021C32.5453 32.8021 32.2172 32.651 31.9151 32.3438C31.1651 31.7083 31.5401 30.7083 33.0401 29.3438C33.4411 29 34.1286 28.3646 35.1026 27.4479C36.0713 26.5208 37.0401 25.5521 37.9984 24.5521C39.0922 23.5 40.0036 22.651 40.7276 22.0104C41.4463 21.3594 41.8838 21.0312 42.0401 21.0312C42.4411 21.0312 42.8005 21.1875 43.1234 21.4896C43.4568 21.7813 43.6234 22.1302 43.6234 22.5313C43.6234 22.8802 43.2484 23.5052 42.4984 24.4063C41.7484 25.2969 40.8422 26.2708 39.7901 27.3229C38.7328 28.3802 37.7536 29.3333 36.8526 30.1771C35.962 31.026 35.3422 31.5729 34.9984 31.8229Z" fill="black"/>
<path d="M53.5247 78.5716C52.7174 77.7799 52.1237 76.0404 51.7331 73.3633C51.332 70.681 51.1289 67.1654 51.1289 62.8216C51.1289 59.3633 51.2279 55.5404 51.4206 51.3424C51.6185 47.1341 51.8997 42.8945 52.2747 38.6133C52.6497 34.3372 53.0872 30.3529 53.5872 26.6549C53.7383 25.5456 53.8633 24.6081 53.9622 23.8424C54.0716 23.0664 54.1289 22.6497 54.1289 22.5924C54.0716 22.5508 53.556 22.6862 52.5872 22.9883C51.6185 23.2799 50.4518 23.6497 49.0872 24.0924C46.6445 24.8997 44.5977 25.6445 42.9414 26.3216C41.2904 26.9883 40.3112 27.5247 40.0039 27.9258C39.7539 28.1758 39.4362 28.3008 39.0456 28.3008C38.5872 28.3008 38.2331 28.1758 37.9831 27.9258C37.6914 27.582 37.5612 27.1706 37.5872 26.6966C37.6029 26.2122 37.7852 25.8216 38.1289 25.5299C38.7852 24.8789 40.4154 24.0195 43.0247 22.9466C45.6237 21.8633 48.5977 20.7956 51.9414 19.7383L54.8789 18.8424L55.7747 16.0716C56.3268 14.4206 56.8424 13.2487 57.3164 12.5508C57.7852 11.8424 58.3008 11.4883 58.8581 11.4883C60.4518 11.4883 60.8789 12.8424 60.1289 15.5508C60.0716 15.8997 59.9935 16.2279 59.8997 16.5299C59.8008 16.8216 59.7539 17.0195 59.7539 17.1133C59.7539 17.1706 60.2227 17.1133 61.1706 16.9466C62.1289 16.7695 63.306 16.4987 64.7122 16.1341C72.7539 13.9987 78.4518 12.9258 81.8164 12.9258C82.0091 12.9258 82.181 12.9414 82.3372 12.9674C82.4883 12.9831 82.6393 12.9883 82.7956 12.9883C83.931 13.1445 84.7852 13.4987 85.3581 14.0508C85.9414 14.5924 86.0872 15.2174 85.7956 15.9258C85.5872 16.4258 85.1341 16.6758 84.4414 16.6758C84.2852 16.6758 84.1185 16.6654 83.9414 16.6341C83.7747 16.6081 83.5872 16.5664 83.3789 16.5091C83.181 16.4154 82.9622 16.3633 82.7122 16.3633C82.4622 16.3633 82.1602 16.3633 81.8164 16.3633C79.9674 16.3633 77.0664 16.7695 73.1081 17.5716C69.1497 18.3633 64.6706 19.4883 59.6706 20.9466C58.9206 21.1445 58.3893 21.332 58.0872 21.5091C57.7956 21.6914 57.5872 22.2331 57.4622 23.1341C57.3372 24.0247 57.1185 25.6706 56.8164 28.0716C56.1185 33.8216 55.5924 39.1654 55.2331 44.0924C54.8841 49.0247 54.6602 54.0664 54.5664 59.2174C54.5247 63.4258 54.5664 66.7487 54.6914 69.1966C54.8164 71.6549 55.0977 73.806 55.5456 75.6549C55.8893 76.806 56.0352 77.5924 55.9831 78.0091C55.9414 78.4362 55.6706 78.7799 55.1706 79.0299C54.9727 79.181 54.7747 79.2591 54.5664 79.2591C54.3164 79.2591 53.9674 79.0299 53.5247 78.5716Z" fill="black"/>
<path d="M67.476 65.1549C66.5698 64.9049 65.7573 64.2227 65.0385 63.1133C64.3198 62.0143 63.7573 60.6862 63.351 59.1341C63.1583 58.3424 63.0333 57.2591 62.976 55.8841C62.924 54.5091 62.95 53.0456 63.0594 51.4883C63.1583 49.9362 63.3042 48.5091 63.4969 47.2174C63.5958 46.7174 63.799 45.7799 64.101 44.4049C64.4083 43.0299 64.7938 41.5612 65.2677 39.9883C65.7365 38.4049 66.2885 37.0508 66.9135 35.9258C67.5385 34.8008 68.174 34.2383 68.8302 34.2383C69.424 34.2383 69.8615 34.5872 70.1427 35.2799C70.4188 35.9779 70.2781 36.6758 69.726 37.3841C69.3771 37.7904 68.9552 38.7799 68.4552 40.3633C67.9552 41.9362 67.5281 43.5664 67.1844 45.2591C66.726 47.5664 66.4552 49.9049 66.3719 52.2799C66.299 54.6549 66.424 56.707 66.7469 58.4258C67.0802 60.1497 67.5698 61.2383 68.226 61.6966C68.476 61.8477 68.674 61.9258 68.8302 61.9258C69.424 61.9258 70.1844 61.431 71.101 60.4466C72.0281 59.4779 72.9604 58.3008 73.8927 56.9258C74.8198 55.5508 75.6479 54.2383 76.3719 52.9883C77.0906 51.7383 77.5802 50.8633 77.8302 50.3633C78.424 49.2122 78.8823 48.4466 79.2052 48.0716C79.5385 47.6966 79.9344 47.5091 80.3927 47.5091C80.6844 47.5091 81.0021 47.7279 81.351 48.1549C81.7104 48.5716 81.8927 48.9362 81.8927 49.2383C81.8927 49.6862 81.5646 50.5247 80.9135 51.7591C80.2573 52.9831 79.4552 54.3737 78.4969 55.9258C77.549 57.4674 76.5802 58.9206 75.5802 60.2799C74.5802 61.6237 73.7313 62.6185 73.0385 63.2591C71.674 64.6185 70.1948 65.3008 68.601 65.3008C68.4031 65.3008 68.2156 65.2852 68.0385 65.2591C67.8563 65.2279 67.6688 65.1966 67.476 65.1549ZM71.226 27.6966C70.8771 27.3529 70.674 27.082 70.6219 26.8841C70.5802 26.6758 70.5802 26.2747 70.6219 25.6758C70.7313 24.6758 70.9344 24.0664 71.226 23.8424C71.5281 23.6081 72.0802 23.4883 72.8719 23.4883C74.2313 23.6445 75.0594 24.0716 75.351 24.7799C75.7104 25.4206 75.6896 26.1706 75.2885 27.0299C74.8302 27.9779 74.049 28.4466 72.9552 28.4466C72.299 28.4466 71.726 28.1966 71.226 27.6966Z" fill="black"/>
<path d="M84.509 68.0716C83.3579 68.0716 82.4465 67.6654 81.7798 66.8633C81.1027 66.0716 80.6132 65.1133 80.3215 63.9883C80.0194 62.8633 79.8371 61.8477 79.7798 60.9466C79.6861 58.6445 79.9465 56.2174 80.5715 53.6758C81.1965 51.1237 82.0611 48.7487 83.1548 46.5508C84.2486 44.3424 85.4986 42.6341 86.9048 41.4258C87.7642 40.6758 88.5402 40.3008 89.2382 40.3008C89.4309 40.3008 89.6184 40.332 89.8007 40.3841C89.9777 40.4258 90.1652 40.5039 90.3632 40.6133C91.4569 41.2122 92.009 42.4622 92.009 44.3633C92.009 46.1133 91.535 46.9883 90.5923 46.9883C89.634 46.9883 89.1548 46.2591 89.1548 44.8008V43.4674L88.1965 44.5091C87.3319 45.457 86.5402 46.7539 85.8215 48.4049C85.0975 50.0612 84.4934 51.8372 84.009 53.7383C83.535 55.6445 83.2538 57.4466 83.1548 59.1549C83.0611 60.8477 83.1861 62.2174 83.5298 63.2591C83.8319 64.1602 84.259 64.6133 84.8007 64.6133C85.3527 64.6133 86.1548 64.207 87.1965 63.4049C88.2486 62.6133 89.4152 61.6029 90.6965 60.3841C91.9725 59.1654 93.2382 57.8997 94.4882 56.5924C95.7382 55.2904 96.8319 54.1133 97.7798 53.0716C98.7382 52.0195 99.3892 51.2904 99.7382 50.8841C100.54 49.9831 101.259 49.2174 101.884 48.5924C102.509 47.9674 102.894 47.6341 103.051 47.5924C103.493 47.5924 103.889 47.6706 104.238 47.8216C104.598 47.9622 104.848 48.2799 104.988 48.7799C105.04 48.9362 105.04 49.1289 104.988 49.3633C104.946 49.5872 104.874 49.8216 104.78 50.0716C104.571 50.4622 104.03 51.1549 103.155 52.1549C102.28 53.1549 101.238 54.3216 100.03 55.6549C98.8319 56.9779 97.5975 58.3008 96.3215 59.6341C95.0402 60.9518 93.8684 62.1393 92.8007 63.1966C91.7277 64.2487 90.8892 64.9987 90.2798 65.4466C87.9882 67.1966 86.0611 68.0716 84.509 68.0716Z" fill="black"/>
<path d="M120.231 65.6758C119.325 65.6758 118.627 65.457 118.127 65.0299C117.627 64.6133 117.2 63.9987 116.856 63.1966C116.299 62.0404 115.908 60.7279 115.689 59.2591C115.465 57.7904 115.377 55.8529 115.419 53.4466C115.471 52.2956 115.502 51.3216 115.502 50.5299C115.502 49.7279 115.502 49.3216 115.502 49.3216C115.502 49.3216 115.273 49.7279 114.814 50.5299C114.366 51.3216 113.846 52.2956 113.252 53.4466C112.153 55.5456 111.262 57.1237 110.585 58.1758C109.903 59.2174 109.325 59.9258 108.856 60.3008C108.382 60.6758 107.846 60.8633 107.252 60.8633C105.642 60.8633 104.767 59.4674 104.627 56.6758C104.575 55.4674 104.658 54.1445 104.877 52.6966C105.101 51.2383 105.439 49.8112 105.898 48.4049C106.346 47.0039 106.861 45.8008 107.46 44.8008C108.57 42.957 109.877 42.0299 111.377 42.0299C111.877 42.0299 112.252 42.0872 112.502 42.1966C112.752 42.2956 113.075 42.5404 113.481 42.9258C114.116 43.4831 114.465 43.7591 114.523 43.7591C114.575 43.707 114.715 43.4414 114.939 42.9674C115.158 42.4987 115.445 41.9622 115.794 41.3633C116.096 40.7122 116.408 40.1133 116.731 39.5716C117.064 39.0195 117.278 38.6654 117.377 38.5091C117.721 38.1654 118.127 37.9883 118.585 37.9883C119.429 37.9883 120.002 38.4154 120.294 39.2591C120.346 39.3581 120.335 39.707 120.252 40.3008C120.179 40.8997 120.096 41.5508 120.002 42.2591C119.502 45.0091 119.148 47.7591 118.939 50.5091C118.741 53.2591 118.731 55.6758 118.898 57.7591C119.075 59.832 119.419 61.2643 119.919 62.0716C119.971 62.1654 120.075 62.2174 120.231 62.2174C120.731 62.2174 121.528 61.3841 122.627 59.7174C123.721 58.0404 125.049 55.6966 126.606 52.6966C127.408 51.1966 128.007 50.0872 128.398 49.3633C128.799 48.6289 129.148 48.1497 129.439 47.9258C129.741 47.707 130.075 47.5924 130.439 47.5924C130.632 47.5924 130.903 47.8164 131.252 48.2591C131.596 48.707 131.773 49.0612 131.773 49.3216C131.773 49.5195 131.507 50.1914 130.981 51.3424C130.465 52.4987 129.856 53.7904 129.148 55.2174C128.45 56.6341 127.804 57.8424 127.21 58.8424C125.804 61.2852 124.564 63.0352 123.481 64.0924C122.408 65.1445 121.325 65.6758 120.231 65.6758ZM110.169 52.0091C111.127 50.2174 111.778 48.9831 112.127 48.3008C112.471 47.6237 112.632 47.1706 112.606 46.9466C112.575 46.7279 112.439 46.4414 112.189 46.0924C111.84 45.4831 111.544 45.1758 111.294 45.1758C110.846 45.1758 110.314 45.8945 109.689 47.3216C109.064 48.7539 108.596 50.3424 108.294 52.0924C108.096 53.0924 107.986 53.9674 107.96 54.7174C107.929 55.4674 107.945 55.8424 108.002 55.8424C108.044 55.8424 108.273 55.4674 108.689 54.7174C109.116 53.9674 109.611 53.0664 110.169 52.0091Z" fill="black"/>
</g>
<path d="M36.4033 110.126C33.57 110.126 31.096 109.47 28.9867 108.168C26.8721 106.85 25.2367 104.996 24.07 102.605C22.9137 100.22 22.3408 97.4128 22.3408 94.1888C22.3408 90.9284 23.0179 88.0846 24.3825 85.668C25.7419 83.2513 27.6429 81.3763 30.0908 80.043C32.5335 78.7096 35.3877 78.043 38.6533 78.043C41.096 78.043 43.3044 78.4909 45.2783 79.3763C47.2627 80.2513 48.9137 81.4961 50.2367 83.1055C51.5544 84.7201 52.4242 86.6003 52.8408 88.7513L42.82 90.418C42.5387 89.4753 42.0075 88.7201 41.2158 88.1471C40.4346 87.5638 39.5387 87.2721 38.5283 87.2721C36.945 87.2721 35.6637 87.9076 34.695 89.168C33.7367 90.418 33.2575 92.0951 33.2575 94.1888C33.2575 96.3971 33.8617 98.1784 35.07 99.5221C36.2887 100.871 37.9242 101.543 39.9658 101.543C41.4346 101.543 42.6637 101.184 43.6533 100.46C44.6533 99.7253 45.2367 98.7513 45.4033 97.543H36.195V91.6888H55.8617V109.293H48.2992L47.2158 103.71H47.1742C46.5335 105.725 45.2262 107.303 43.2575 108.439C41.2835 109.564 38.9971 110.126 36.4033 110.126Z" fill="black"/>
<path d="M59.6377 109.293V79.1055H70.5335V100.064H80.1794V109.293H59.6377Z" fill="black"/>
<path d="M81.0186 109.293L91.1227 79.1055H104.539L114.644 109.293H103.289L102.123 104.689H93.4769L92.2894 109.293H81.0186ZM95.0186 97.543H100.56L97.8727 87.0221H97.7894L95.0186 97.543Z" fill="black"/>
<path d="M130.048 110.335C127.392 110.335 125.027 110.001 122.944 109.335C120.861 108.668 119.178 107.626 117.902 106.21C116.621 104.793 115.871 102.939 115.652 100.647L125.34 98.8138C125.59 100.095 126.184 101.079 127.132 101.772C128.09 102.454 129.257 102.793 130.632 102.793C131.866 102.793 132.85 102.6 133.59 102.21C134.324 101.824 134.694 101.288 134.694 100.605C134.694 100.053 134.392 99.6055 133.798 99.2721C133.199 98.9388 132.241 98.6784 130.923 98.4805L127.361 97.9596C123.387 97.3242 120.507 96.2461 118.715 94.7305C116.923 93.2044 116.027 91.0638 116.027 88.3138C116.027 86.1628 116.637 84.3242 117.861 82.793C119.079 81.2513 120.741 80.0794 122.84 79.2721C124.934 78.4544 127.283 78.043 129.882 78.043C132.225 78.043 134.361 78.4076 136.277 79.1263C138.194 79.8346 139.757 80.8555 140.965 82.1888C142.184 83.5117 142.908 85.0951 143.132 86.9388L133.569 88.9596C133.428 87.8919 132.991 87.0638 132.257 86.4805C131.533 85.8971 130.658 85.6055 129.632 85.6055C128.725 85.6055 128.007 85.7878 127.465 86.1471C126.923 86.5117 126.652 86.9961 126.652 87.6055C126.652 88.1471 126.934 88.5742 127.507 88.8763C128.074 89.1836 128.991 89.418 130.257 89.5846L133.902 90.043C137.845 90.543 140.704 91.5586 142.486 93.0846C144.277 94.6159 145.173 96.8034 145.173 99.6471C145.173 102.022 144.512 104.001 143.194 105.585C141.887 107.168 140.095 108.355 137.819 109.147C135.538 109.939 132.949 110.335 130.048 110.335Z" fill="black"/>
<path d="M160.998 110.335C158.342 110.335 155.978 110.001 153.894 109.335C151.811 108.668 150.129 107.626 148.853 106.21C147.571 104.793 146.821 102.939 146.603 100.647L156.29 98.8138C156.54 100.095 157.134 101.079 158.082 101.772C159.04 102.454 160.207 102.793 161.582 102.793C162.816 102.793 163.8 102.6 164.54 102.21C165.274 101.824 165.644 101.288 165.644 100.605C165.644 100.053 165.342 99.6055 164.748 99.2721C164.149 98.9388 163.191 98.6784 161.873 98.4805L158.311 97.9596C154.337 97.3242 151.457 96.2461 149.665 94.7305C147.873 93.2044 146.978 91.0638 146.978 88.3138C146.978 86.1628 147.587 84.3242 148.811 82.793C150.03 81.2513 151.691 80.0794 153.79 79.2721C155.884 78.4544 158.233 78.043 160.832 78.043C163.175 78.043 165.311 78.4076 167.228 79.1263C169.144 79.8346 170.707 80.8555 171.915 82.1888C173.134 83.5117 173.858 85.0951 174.082 86.9388L164.519 88.9596C164.379 87.8919 163.941 87.0638 163.207 86.4805C162.483 85.8971 161.608 85.6055 160.582 85.6055C159.675 85.6055 158.957 85.7878 158.415 86.1471C157.873 86.5117 157.603 86.9961 157.603 87.6055C157.603 88.1471 157.884 88.5742 158.457 88.8763C159.024 89.1836 159.941 89.418 161.207 89.5846L164.853 90.043C168.795 90.543 171.655 91.5586 173.436 93.0846C175.228 94.6159 176.123 96.8034 176.123 99.6471C176.123 102.022 175.462 104.001 174.144 105.585C172.837 107.168 171.045 108.355 168.769 109.147C166.488 109.939 163.899 110.335 160.998 110.335Z" fill="black"/>
<path d="M178.656 109.293V79.1055H200.448V87.4805H189.135V90.418H198.781V97.543H189.135V100.897H200.885V109.293H178.656Z" fill="black"/>
<path d="M217.117 110.335C214.461 110.335 212.096 110.001 210.013 109.335C207.93 108.668 206.247 107.626 204.971 106.21C203.69 104.793 202.94 102.939 202.721 100.647L212.409 98.8138C212.659 100.095 213.252 101.079 214.2 101.772C215.159 102.454 216.325 102.793 217.7 102.793C218.935 102.793 219.919 102.6 220.659 102.21C221.393 101.824 221.763 101.288 221.763 100.605C221.763 100.053 221.461 99.6055 220.867 99.2721C220.268 98.9388 219.31 98.6784 217.992 98.4805L214.43 97.9596C210.456 97.3242 207.575 96.2461 205.784 94.7305C203.992 93.2044 203.096 91.0638 203.096 88.3138C203.096 86.1628 203.706 84.3242 204.93 82.793C206.148 81.2513 207.81 80.0794 209.909 79.2721C212.002 78.4544 214.351 78.043 216.95 78.043C219.294 78.043 221.43 78.4076 223.346 79.1263C225.263 79.8346 226.825 80.8555 228.034 82.1888C229.252 83.5117 229.976 85.0951 230.2 86.9388L220.638 88.9596C220.497 87.8919 220.06 87.0638 219.325 86.4805C218.601 85.8971 217.726 85.6055 216.7 85.6055C215.794 85.6055 215.075 85.7878 214.534 86.1471C213.992 86.5117 213.721 86.9961 213.721 87.6055C213.721 88.1471 214.002 88.5742 214.575 88.8763C215.143 89.1836 216.06 89.418 217.325 89.5846L220.971 90.043C224.914 90.543 227.773 91.5586 229.555 93.0846C231.346 94.6159 232.242 96.8034 232.242 99.6471C232.242 102.022 231.581 104.001 230.263 105.585C228.956 107.168 227.164 108.355 224.888 109.147C222.607 109.939 220.018 110.335 217.117 110.335Z" fill="black"/>
</g>
<defs>
<clipPath id="clip0_562_199">
<rect width="249" height="127" fill="white"/>
</clipPath>
</defs>
</svg>
